<?xml version="1.0" encoding="UTF-8"?>
<svg xmlns="http://www.w3.org/2000/svg" xmlns:xlink="http://www.w3.org/1999/xlink" width="96px" height="96px" viewBox="0 0 96 96" version="1.1">
<g id="surface1">
<path style=" stroke:none;fill-rule:evenodd;fill:rgb(0%,0%,0%);fill-opacity:1;" d="M 48 0 C 74.511719 0 96 22.03125 96 49.214844 C 96 70.953125 82.261719 89.394531 63.203125 95.910156 C 60.769531 96.394531 59.902344 94.859375 59.902344 93.546875 C 59.902344 91.925781 59.960938 86.625 59.960938 80.039062 C 59.960938 75.453125 58.425781 72.457031 56.703125 70.929688 C 67.390625 69.710938 78.625 65.546875 78.625 46.644531 C 78.625 41.269531 76.761719 36.882812 73.679688 33.4375 C 74.179688 32.195312 75.824219 27.1875 73.210938 20.410156 C 73.210938 20.410156 69.1875 19.089844 60.023438 25.453125 C 56.1875 24.363281 52.078125 23.816406 48 23.796875 C 43.921875 23.816406 39.816406 24.363281 35.984375 25.453125 C 26.8125 19.089844 22.78125 20.410156 22.78125 20.410156 C 20.175781 27.1875 21.820312 32.195312 22.316406 33.4375 C 19.246094 36.882812 17.371094 41.269531 17.371094 46.644531 C 17.371094 65.5 28.578125 69.726562 39.238281 70.96875 C 37.867188 72.195312 36.625 74.367188 36.191406 77.546875 C 33.457031 78.804688 26.503906 80.980469 22.222656 73.460938 C 22.222656 73.460938 19.683594 68.730469 14.867188 68.386719 C 14.867188 68.386719 10.1875 68.324219 14.539062 71.375 C 14.539062 71.375 17.683594 72.886719 19.867188 78.574219 C 19.867188 78.574219 22.683594 87.359375 36.039062 84.382812 C 36.0625 88.496094 36.105469 92.375 36.105469 93.546875 C 36.105469 94.847656 35.222656 96.371094 32.828125 95.914062 C 13.753906 89.410156 0 70.957031 0 49.214844 C 0 22.03125 21.496094 0 48 0 "/>
</g>
</svg>
