<?xml version="1.0" encoding="UTF-8"?>
<svg xmlns="http://www.w3.org/2000/svg" xmlns:xlink="http://www.w3.org/1999/xlink" width="96px" height="96px" viewBox="0 0 96 96" version="1.1">
<defs>
<linearGradient id="linear0" gradientUnits="userSpaceOnUse" x1="278.441803" y1="680.185486" x2="298.585907" y2="680.185486" gradientTransform="matrix(1.728,0,0,-1.728,-454.940449,1218.252187)">
<stop offset="0" style="stop-color:rgb(0%,0%,0%);stop-opacity:1;"/>
<stop offset="1" style="stop-color:rgb(42.745098%,33.72549%,33.72549%);stop-opacity:1;"/>
</linearGradient>
<linearGradient id="linear1" gradientUnits="userSpaceOnUse" x1="309.169312" y1="672.547302" x2="357.133514" y2="703.682983" gradientTransform="matrix(1.725888,-0.0856549,-0.0856549,-1.725888,-447.268799,1260.391055)">
<stop offset="0" style="stop-color:rgb(0%,0%,0%);stop-opacity:1;"/>
<stop offset="1" style="stop-color:rgb(42.745098%,33.72549%,33.72549%);stop-opacity:1;"/>
</linearGradient>
<linearGradient id="linear2" gradientUnits="userSpaceOnUse" x1="276.475891" y1="675.35907" x2="292.954987" y2="681.793823" gradientTransform="matrix(1.728,0,0,-1.728,-454.940449,1218.252187)">
<stop offset="0" style="stop-color:rgb(0%,0%,0%);stop-opacity:1;"/>
<stop offset="1" style="stop-color:rgb(42.745098%,33.72549%,33.72549%);stop-opacity:1;"/>
</linearGradient>
</defs>
<g id="surface1">
<path style=" stroke:none;fill-rule:nonzero;fill:rgb(10.196079%,10.196079%,10.196079%);fill-opacity:1;" d="M 82.273438 40.03125 C 88.222656 41.761719 88.222656 41.761719 88.222656 41.761719 L 82.65625 43.390625 L 86.496094 45.023438 L 82.464844 45.792969 Z M 82.273438 40.03125 "/>
<path style=" stroke:none;fill-rule:nonzero;fill:rgb(0%,0%,0%);fill-opacity:1;" d="M 81.695312 46.753906 L 81.601562 43.871094 L 80.257812 43.296875 L 81.601562 42.910156 L 81.503906 38.976562 L 91.296875 41.855469 L 85.246094 43.679688 L 89.472656 45.40625 Z M 83.230469 44.640625 L 83.230469 44.832031 L 83.519531 44.734375 Z M 83.136719 41.183594 L 83.136719 42.433594 L 85.246094 41.855469 Z M 83.136719 41.183594 "/>
<path style=" stroke:none;fill-rule:nonzero;fill:url(#linear0);" d="M 26.207031 28.992188 C 25.441406 39.167969 37.632812 55.488281 49.726562 56.832031 C 54.433594 57.3125 61.34375 52.894531 60.960938 48.191406 C 60 34.945312 39.648438 34.273438 26.207031 28.992188 Z M 26.207031 28.992188 "/>
<path style=" stroke:none;fill-rule:nonzero;fill:url(#linear1);" d="M 4.800781 66.71875 C 18.046875 81.40625 41.855469 88.128906 59.136719 80.929688 C 73.535156 74.976562 82.945312 55.777344 82.945312 40.609375 C 82.945312 30.144531 72.480469 18.335938 57.023438 23.230469 C 50.113281 25.441406 44.832031 32.351562 40.320312 38.6875 C 30.335938 51.9375 21.503906 60.960938 4.800781 66.71875 Z M 4.800781 66.71875 "/>
<path style=" stroke:none;fill-rule:nonzero;fill:url(#linear2);" d="M 14.785156 36.960938 C 15.648438 47.136719 30.335938 61.34375 42.433594 60.671875 C 47.136719 60.382812 53.28125 54.910156 52.128906 50.304688 C 49.054688 37.441406 28.800781 40.03125 14.785156 36.960938 Z M 14.785156 36.960938 "/>
<path style=" stroke:none;fill-rule:nonzero;fill:rgb(83.137256%,0%,0%);fill-opacity:1;" d="M 48.289062 28.894531 C 52.511719 29.28125 59.902344 30.625 65.761719 31.007812 C 70.558594 31.296875 76.222656 31.199219 80.160156 31.105469 C 83.039062 36 83.425781 39.742188 82.558594 45.886719 C 74.113281 47.328125 67.777344 46.175781 60.863281 43.96875 C 54.625 41.953125 48.382812 38.976562 43.871094 33.886719 C 45.886719 31.007812 46.558594 30.433594 48.289062 28.894531 Z M 48.289062 28.894531 "/>
<path style=" stroke:none;fill-rule:nonzero;fill:rgb(100%,100%,100%);fill-opacity:1;" d="M 79.476562 40.980469 C 78.625 43.21875 75.835938 43.949219 73.011719 42.757812 C 70.183594 41.566406 68.707031 38.867188 69.503906 36.777344 C 70.296875 34.6875 73.140625 33.808594 75.96875 35 C 78.683594 35.972656 80.328125 38.742188 79.476562 40.980469 Z M 79.476562 40.980469 "/>
<path style=" stroke:none;fill-rule:nonzero;fill:rgb(10.196079%,10.196079%,10.196079%);fill-opacity:1;" d="M 79.199219 40.691406 C 78.574219 42.332031 76.566406 43.046875 74.570312 42.207031 C 72.578125 41.363281 71.59375 39.390625 72.21875 37.75 C 72.84375 36.109375 74.851562 35.394531 76.847656 36.234375 C 78.675781 37.007812 79.828125 39.050781 79.199219 40.691406 Z M 79.199219 40.691406 "/>
<path style=" stroke:none;fill-rule:nonzero;fill:rgb(100%,100%,100%);fill-opacity:1;" d="M 78.332031 38.421875 C 78.101562 39.015625 77.433594 39.253906 76.769531 38.972656 C 76.105469 38.695312 75.777344 38.035156 76.003906 37.4375 C 76.230469 36.84375 76.898438 36.605469 77.566406 36.886719 C 78.230469 37.164062 78.5 37.972656 78.332031 38.421875 Z M 78.332031 38.421875 "/>
<path style=" stroke:none;fill-rule:nonzero;fill:rgb(10.196079%,10.196079%,10.196079%);fill-opacity:1;" d="M 79.105469 37.824219 C 78.046875 37.152344 77.183594 36.289062 76.128906 35.617188 C 75.070312 34.945312 74.113281 34.273438 72.960938 33.792969 C 72.480469 33.601562 72 33.40625 71.425781 33.3125 C 71.039062 33.40625 71.519531 33.121094 71.519531 33.023438 C 71.902344 32.640625 72.191406 32.257812 72.574219 31.871094 C 73.054688 31.96875 73.441406 32.160156 73.824219 32.257812 C 74.976562 32.734375 76.03125 33.40625 77.089844 34.175781 C 78.144531 34.847656 79.105469 35.710938 80.160156 36.382812 C 80.449219 36.480469 80.449219 36.671875 80.257812 36.769531 C 79.96875 37.054688 79.488281 37.441406 79.105469 37.824219 Z M 79.105469 37.824219 "/>
<path style=" stroke:none;fill-rule:nonzero;fill:rgb(83.137256%,0%,0%);fill-opacity:1;" d="M 49.152344 34.558594 C 47.136719 34.464844 44.734375 34.753906 43.199219 32.832031 C 41.855469 31.296875 40.703125 29.472656 40.03125 27.457031 C 39.9375 26.015625 39.9375 24.191406 38.59375 23.519531 C 37.054688 22.558594 35.230469 22.65625 33.503906 22.367188 C 30.335938 22.175781 27.265625 23.519531 24.289062 24.671875 C 22.847656 25.246094 21.121094 25.152344 20.0625 23.710938 C 19.296875 22.753906 18.71875 21.601562 18.238281 20.449219 C 17.472656 19.679688 17.472656 18.527344 18.433594 18.238281 C 19.007812 17.855469 19.679688 17.375 20.257812 16.992188 C 21.214844 19.105469 21.984375 21.695312 24 22.65625 C 26.113281 23.136719 28.03125 21.792969 29.953125 21.214844 C 32.734375 20.160156 35.710938 19.96875 38.496094 20.542969 C 40.128906 20.734375 42.144531 21.40625 42.625 23.519531 C 42.816406 25.34375 43.105469 27.167969 44.160156 28.511719 C 45.214844 30.335938 46.753906 32.160156 48.769531 32.257812 C 49.441406 32.542969 51.648438 31.96875 51.359375 32.640625 C 50.59375 33.214844 49.824219 33.886719 49.152344 34.558594 Z M 49.152344 34.558594 "/>
<path style=" stroke:none;fill-rule:nonzero;fill:rgb(83.137256%,0%,0%);fill-opacity:1;" d="M 47.808594 33.601562 C 46.367188 32.640625 44.542969 31.777344 43.871094 30.046875 C 43.488281 28.894531 43.007812 27.648438 42.816406 26.398438 C 42.625 24.769531 42.816406 23.039062 42.71875 21.3125 C 43.007812 20.257812 42.335938 19.296875 41.183594 19.007812 C 39.742188 18.625 38.304688 18.625 36.863281 18.433594 C 35.519531 18.335938 33.984375 18.625 32.929688 17.664062 C 32.160156 16.703125 31.777344 15.457031 31.390625 14.304688 C 31.296875 13.726562 32.0625 13.632812 32.449219 13.34375 C 33.121094 12.960938 33.695312 12.574219 34.367188 12.097656 C 34.464844 13.246094 35.039062 14.304688 35.425781 15.265625 C 36 16.320312 37.34375 16.414062 38.496094 16.414062 C 40.222656 16.511719 41.953125 16.511719 43.679688 16.894531 C 44.734375 17.183594 45.984375 17.855469 45.886719 19.105469 C 45.984375 21.695312 45.503906 24.289062 46.464844 26.785156 C 46.847656 27.9375 47.230469 29.089844 48.191406 29.855469 C 48.960938 30.527344 49.824219 31.007812 50.6875 31.488281 C 50.015625 32.0625 49.152344 32.542969 48.382812 33.023438 C 48.097656 33.3125 47.902344 33.40625 47.808594 33.601562 Z M 47.808594 33.601562 "/>
</g>
</svg>
