<?xml version="1.0" encoding="UTF-8"?>
<svg xmlns="http://www.w3.org/2000/svg" xmlns:xlink="http://www.w3.org/1999/xlink" width="96px" height="96px" viewBox="0 0 96 96" version="1.1">
<g id="surface1">
<path style=" stroke:none;fill-rule:nonzero;fill:rgb(0%,0%,0%);fill-opacity:1;" d="M 48.332031 42.757812 C 44.03125 42.757812 41.550781 46.976562 41.550781 52.191406 C 41.507812 57.484375 44.070312 61.535156 48.289062 61.535156 C 52.546875 61.535156 55.03125 57.523438 55.03125 52.066406 C 55.03125 46.976562 52.632812 42.757812 48.332031 42.757812 Z M 48.332031 42.757812 "/>
<path style=" stroke:none;fill-rule:nonzero;fill:rgb(0%,0%,0%);fill-opacity:1;" d="M 85.128906 34.335938 L 82.824219 34.335938 L 82.824219 23.214844 C 82.824219 23.144531 82.8125 23.074219 82.804688 23.003906 C 82.800781 22.5625 82.660156 22.128906 82.355469 21.785156 L 63.847656 0.644531 C 63.84375 0.636719 63.835938 0.636719 63.832031 0.628906 C 63.722656 0.507812 63.59375 0.40625 63.457031 0.316406 C 63.417969 0.289062 63.375 0.265625 63.335938 0.242188 C 63.21875 0.179688 63.09375 0.125 62.964844 0.0859375 C 62.929688 0.078125 62.898438 0.0625 62.863281 0.0546875 C 62.722656 0.0195312 62.578125 0 62.429688 0 L 16.941406 0 C 14.863281 0 13.175781 1.6875 13.175781 3.765625 L 13.175781 34.335938 L 10.871094 34.335938 C 7.902344 34.335938 5.492188 36.746094 5.492188 39.71875 L 5.492188 67.699219 C 5.492188 70.667969 7.902344 73.082031 10.871094 73.082031 L 13.175781 73.082031 L 13.175781 92.234375 C 13.175781 94.3125 14.863281 96 16.941406 96 L 79.058594 96 C 81.132812 96 82.824219 94.3125 82.824219 92.234375 L 82.824219 73.082031 L 85.128906 73.082031 C 88.101562 73.082031 90.507812 70.667969 90.507812 67.699219 L 90.507812 39.71875 C 90.507812 36.746094 88.101562 34.335938 85.128906 34.335938 Z M 16.941406 3.765625 L 60.546875 3.765625 L 60.546875 23.027344 C 60.546875 24.066406 61.390625 24.90625 62.429688 24.90625 L 79.058594 24.90625 L 79.058594 34.339844 L 16.941406 34.339844 Z M 61.8125 66 L 59.992188 70.882812 C 56.023438 69.726562 52.714844 68.523438 48.992188 66.953125 C 48.375 66.707031 47.710938 66.582031 47.050781 66.539062 C 40.761719 66.128906 34.890625 61.496094 34.890625 52.398438 C 34.890625 44.042969 40.183594 37.753906 48.496094 37.753906 C 57.019531 37.753906 61.6875 44.207031 61.6875 51.816406 C 61.6875 58.144531 58.753906 62.609375 55.074219 64.265625 L 55.074219 64.429688 C 57.222656 65.050781 59.621094 65.546875 61.8125 66 Z M 12.765625 64.804688 L 14.050781 59.59375 C 15.746094 60.460938 18.347656 61.328125 21.039062 61.328125 C 23.933594 61.328125 25.464844 60.128906 25.464844 58.3125 C 25.464844 56.574219 24.140625 55.582031 20.789062 54.382812 C 16.15625 52.769531 13.140625 50.203125 13.140625 46.152344 C 13.140625 41.394531 17.109375 37.753906 23.683594 37.753906 C 26.828125 37.753906 29.144531 38.417969 30.796875 39.160156 L 29.394531 44.25 C 28.277344 43.710938 26.292969 42.925781 23.5625 42.925781 C 20.832031 42.925781 19.507812 44.164062 19.507812 45.613281 C 19.507812 47.390625 21.078125 48.179688 24.679688 49.542969 C 29.597656 51.363281 31.914062 53.925781 31.914062 57.855469 C 31.914062 62.53125 28.316406 66.5 20.664062 66.5 C 17.480469 66.496094 14.339844 65.667969 12.765625 64.804688 Z M 79.058594 91.214844 L 16.941406 91.214844 L 16.941406 73.082031 L 79.058594 73.082031 Z M 83.234375 66.082031 L 65.820312 66.082031 L 65.820312 38.210938 L 72.152344 38.210938 L 72.152344 60.792969 L 83.234375 60.792969 Z M 83.234375 66.082031 "/>
</g>
</svg>
