<?xml version="1.0" encoding="UTF-8"?>
<svg xmlns="http://www.w3.org/2000/svg" xmlns:xlink="http://www.w3.org/1999/xlink" width="96px" height="96px" viewBox="0 0 96 96" version="1.1">
<g id="surface1">
<path style=" stroke:none;fill-rule:nonzero;fill:rgb(96.862745%,87.450981%,11.764706%);fill-opacity:1;" d="M 14.398438 0 L 81.601562 0 C 89.554688 0 96 6.445312 96 14.398438 L 96 81.601562 C 96 89.554688 89.554688 96 81.601562 96 L 14.398438 96 C 6.445312 96 0 89.554688 0 81.601562 L 0 14.398438 C 0 6.445312 6.445312 0 14.398438 0 Z M 14.398438 0 "/>
<path style=" stroke:none;fill-rule:nonzero;fill:rgb(0%,0%,0%);fill-opacity:1;" d="M 60.75 69.375 C 62.625 72.5625 65.25 74.8125 69.5625 74.8125 C 73.3125 74.8125 75.75 72.9375 75.75 70.3125 C 75.75 67.3125 73.3125 66.1875 69.1875 64.3125 L 66.9375 63.375 C 60.375 60.5625 56.0625 57.1875 56.0625 49.875 C 56.0625 43.125 61.125 37.875 69.1875 37.875 C 75 37.875 79.125 39.9375 81.9375 45.1875 L 75 49.6875 C 73.5 46.875 71.8125 45.75 69.1875 45.75 C 66.5625 45.75 64.875 47.4375 64.875 49.6875 C 64.875 52.3125 66.5625 53.4375 70.5 55.125 L 72.75 56.0625 C 80.4375 59.4375 84.75 62.625 84.75 70.3125 C 84.75 78.375 78.375 82.875 69.75 82.875 C 61.3125 82.875 55.875 78.9375 53.25 73.6875 Z M 28.875 70.125 C 30.375 72.5625 31.5 74.8125 34.6875 74.8125 C 37.6875 74.8125 39.5625 73.6875 39.5625 69.1875 L 39.5625 38.0625 L 48.5625 38.0625 L 48.5625 68.8125 C 48.5625 78.1875 43.125 82.3125 35.0625 82.3125 C 27.75 82.3125 23.625 78.5625 21.5625 74.0625 Z M 28.875 70.125 "/>
</g>
</svg>
