<?xml version="1.0" encoding="UTF-8"?>
<svg xmlns="http://www.w3.org/2000/svg" xmlns:xlink="http://www.w3.org/1999/xlink" width="96px" height="96px" viewBox="0 0 96 96" version="1.1">
<defs>
<linearGradient id="linear0" gradientUnits="userSpaceOnUse" x1="0.499997" y1="10.893962" x2="0.499997" y2="-1.594997" gradientTransform="matrix(58.472656,0,0,5.183594,23.769531,40.320312)">
<stop offset="0.3033" style="stop-color:rgb(27.843137%,21.568627%,53.333333%);stop-opacity:1;"/>
<stop offset="0.872" style="stop-color:rgb(17.254902%,13.333333%,33.333333%);stop-opacity:1;"/>
</linearGradient>
<linearGradient id="linear1" gradientUnits="userSpaceOnUse" x1="0.499989" y1="8.965366" x2="0.499989" y2="-3.523592" gradientTransform="matrix(58.472656,0,0,5.183594,23.769531,50.3125)">
<stop offset="0.3033" style="stop-color:rgb(27.843137%,21.568627%,53.333333%);stop-opacity:1;"/>
<stop offset="0.872" style="stop-color:rgb(17.254902%,13.333333%,33.333333%);stop-opacity:1;"/>
</linearGradient>
<linearGradient id="linear2" gradientUnits="userSpaceOnUse" x1="0.499988" y1="2.151699" x2="0.499988" y2="-1.667154" gradientTransform="matrix(53.191406,0,0,16.941406,26.410156,60.308594)">
<stop offset="0.3033" style="stop-color:rgb(27.843137%,21.568627%,53.333333%);stop-opacity:1;"/>
<stop offset="0.8631" style="stop-color:rgb(17.254902%,13.333333%,33.333333%);stop-opacity:1;"/>
</linearGradient>
</defs>
<g id="surface1">
<path style=" stroke:none;fill-rule:nonzero;fill:rgb(17.254902%,13.333334%,33.333334%);fill-opacity:1;" d="M 94.304688 60.308594 C 92.34375 66.992188 88.703125 72.984375 83.375 78.273438 L 83.140625 78.507812 C 76.488281 85.117188 68.742188 89.082031 59.90625 90.414062 C 57.675781 90.75 55.375 90.929688 53.003906 90.929688 C 41.140625 90.929688 30.992188 86.714844 22.554688 78.273438 C 17.261719 72.980469 13.644531 66.992188 11.695312 60.308594 Z M 95.964844 50.3125 C 95.882812 51.90625 95.71875 53.460938 95.480469 54.988281 L 95.398438 55.496094 L 10.609375 55.496094 C 10.355469 53.976562 10.175781 52.429688 10.082031 50.84375 L 10.050781 50.3125 Z M 95.398438 40.320312 C 95.652344 41.839844 95.832031 43.390625 95.929688 44.972656 L 95.960938 45.503906 L 10.050781 45.503906 C 10.128906 43.910156 10.292969 42.355469 10.527344 40.828125 L 10.609375 40.320312 Z M 95.398438 40.320312 "/>
<path style=" stroke:none;fill-rule:nonzero;fill:rgb(17.254902%,13.333334%,33.333334%);fill-opacity:1;" d="M 94.308594 35.507812 C 92.34375 28.808594 88.703125 22.789062 83.375 17.457031 C 76.6875 10.769531 68.882812 6.757812 59.976562 5.410156 C 57.722656 5.066406 55.402344 4.886719 53.003906 4.886719 C 41.140625 4.886719 30.992188 9.078125 22.554688 17.457031 C 17.257812 22.789062 13.640625 28.808594 11.695312 35.507812 "/>
<path style=" stroke:none;fill-rule:nonzero;fill:rgb(96.862745%,58.039218%,11.764706%);fill-opacity:1;" d="M 7.496094 47.910156 C 7.496094 25.214844 24.539062 6.359375 46.714844 3.042969 C 46.164062 3.023438 45.609375 3 45.054688 3 C 20.171875 3 0 23.105469 0 47.910156 C 0 72.714844 20.171875 92.820312 45.054688 92.820312 C 45.613281 92.820312 46.164062 92.800781 46.71875 92.777344 C 24.539062 89.460938 7.496094 70.605469 7.496094 47.910156 Z M 7.496094 47.910156 "/>
<path style=" stroke:none;fill-rule:nonzero;fill:url(#linear0);" d="M 82.242188 45.503906 C 82.097656 43.726562 81.800781 41.992188 81.351562 40.320312 L 24.660156 40.320312 C 24.214844 41.992188 23.914062 43.726562 23.769531 45.503906 Z M 82.242188 45.503906 "/>
<path style=" stroke:none;fill-rule:nonzero;fill:url(#linear1);" d="M 82.242188 50.3125 L 23.769531 50.3125 C 23.914062 52.089844 24.214844 53.824219 24.660156 55.496094 L 81.351562 55.496094 C 81.800781 53.824219 82.097656 52.089844 82.242188 50.3125 Z M 82.242188 50.3125 "/>
<path style=" stroke:none;fill-rule:nonzero;fill:url(#linear2);" d="M 53.007812 77.25 C 64.78125 77.25 74.929688 70.316406 79.601562 60.308594 L 26.410156 60.308594 C 31.085938 70.316406 41.234375 77.25 53.007812 77.25 Z M 53.007812 77.25 "/>
<path style=" stroke:none;fill-rule:nonzero;fill:rgb(100%,100%,100%);fill-opacity:1;" d="M 95.386719 55.496094 C 95.097656 57.132812 94.71875 58.738281 94.25 60.308594 L 11.695312 60.308594 C 11.226562 58.738281 10.898438 57.132812 10.609375 55.496094 Z M 95.886719 45.503906 C 95.9375 46.332031 95.964844 47.164062 95.964844 48.003906 C 95.964844 48.777344 95.945312 49.550781 95.902344 50.3125 L 10.035156 50.3125 C 9.996094 49.550781 9.972656 48.777344 9.972656 48.003906 C 9.972656 47.164062 10.003906 46.328125 10.050781 45.503906 Z M 93.96875 35.507812 C 94.445312 37.078125 94.828125 38.683594 95.125 40.320312 L 10.609375 40.320312 C 10.90625 38.683594 11.214844 37.074219 11.695312 35.507812 Z M 93.96875 35.507812 "/>
</g>
</svg>
