<?xml version="1.0" encoding="UTF-8"?>
<svg xmlns="http://www.w3.org/2000/svg" xmlns:xlink="http://www.w3.org/1999/xlink" width="96px" height="96px" viewBox="0 0 96 96" version="1.1">
<defs>
<linearGradient id="linear0" gradientUnits="userSpaceOnUse" x1="11.544" y1="4.676" x2="6.918" y2="11.282" gradientTransform="matrix(6,0,0,6,0,0)">
<stop offset="0.18" style="stop-color:rgb(0%,32.156863%,80%);stop-opacity:1;"/>
<stop offset="1" style="stop-color:rgb(14.901961%,51.764706%,100%);stop-opacity:1;"/>
</linearGradient>
</defs>
<g id="surface1">
<path style=" stroke:none;fill-rule:evenodd;fill:rgb(14.901961%,51.764709%,100%);fill-opacity:1;" d="M 8.417969 12.898438 C 8.910156 12.328125 9.625 12 10.378906 12 L 85.621094 12.011719 C 86.371094 12.011719 87.085938 12.34375 87.574219 12.914062 C 88.066406 13.488281 88.28125 14.246094 88.164062 14.988281 L 77.304688 81.796875 C 77.097656 83.046875 76.019531 83.960938 74.753906 83.957031 L 22.15625 83.957031 C 20.484375 83.9375 19.054688 82.738281 18.75 81.089844 L 7.828125 14.96875 C 7.710938 14.226562 7.925781 13.46875 8.417969 12.898438 Z M 39.636719 59.785156 L 56.460938 59.785156 L 60.523438 36.203125 L 35.152344 36.203125 Z M 39.636719 59.785156 "/>
<path style=" stroke:none;fill-rule:nonzero;fill:url(#linear0);" d="M 84.730469 36.199219 L 60.601562 36.199219 L 56.578125 59.785156 L 39.625 59.785156 L 19.902344 83.160156 C 20.53125 83.699219 21.328125 83.992188 22.15625 84 L 74.753906 84 C 76.019531 84.003906 77.097656 83.085938 77.304688 81.839844 Z M 84.730469 36.199219 "/>
</g>
</svg>
