<?xml version="1.0" encoding="UTF-8"?>
<svg xmlns="http://www.w3.org/2000/svg" xmlns:xlink="http://www.w3.org/1999/xlink" width="96px" height="96px" viewBox="0 0 96 96" version="1.1">
<g id="surface1">
<path style=" stroke:none;fill-rule:nonzero;fill:rgb(93.333334%,31.764707%,23.137255%);fill-opacity:1;" d="M 7.757812 52.238281 C 5.414062 49.898438 5.414062 46.101562 7.757812 43.761719 L 43.761719 7.757812 C 46.101562 5.414062 49.898438 5.414062 52.238281 7.757812 L 88.242188 43.761719 C 90.585938 46.101562 90.585938 49.898438 88.242188 52.238281 L 52.238281 88.242188 C 49.898438 90.585938 46.101562 90.585938 43.761719 88.242188 Z M 7.757812 52.238281 "/>
<path style=" stroke:none;fill-rule:nonzero;fill:rgb(100%,100%,100%);fill-opacity:1;" d="M 36.445312 15.183594 L 32.800781 18.832031 L 42.21875 28.246094 C 41.835938 29.066406 41.625 29.976562 41.625 30.9375 C 41.625 33.664062 43.339844 35.996094 45.75 36.902344 L 45.75 59.9375 C 43.339844 60.847656 41.625 63.175781 41.625 65.90625 C 41.625 69.425781 44.476562 72.28125 48 72.28125 C 51.519531 72.28125 54.375 69.425781 54.375 65.90625 C 54.375 63.433594 52.964844 61.285156 50.90625 60.230469 L 50.90625 36.933594 L 59.90625 45.9375 C 59.542969 46.738281 59.34375 47.625 59.34375 48.5625 C 59.34375 52.082031 62.195312 54.9375 65.71875 54.9375 C 69.238281 54.9375 72.09375 52.082031 72.09375 48.5625 C 72.09375 45.042969 69.238281 42.1875 65.71875 42.1875 C 65.035156 42.1875 64.375 42.292969 63.757812 42.496094 L 54.089844 32.828125 C 54.273438 32.230469 54.375 31.59375 54.375 30.9375 C 54.375 27.417969 51.519531 24.5625 48 24.5625 C 47.339844 24.5625 46.707031 24.660156 46.109375 24.847656 Z M 36.445312 15.183594 "/>
</g>
</svg>
