<?xml version="1.0" encoding="UTF-8"?>
<svg xmlns="http://www.w3.org/2000/svg" xmlns:xlink="http://www.w3.org/1999/xlink" width="96px" height="96px" viewBox="0 0 96 96" version="1.1">
<g id="surface1">
<path style=" stroke:none;fill-rule:nonzero;fill:rgb(21.960784%,16.470589%,14.117648%);fill-opacity:1;" d="M 44.769531 1.570312 L 51.046875 1.570312 C 68.839844 3.402344 81.796875 12.265625 89.90625 28.152344 C 92.324219 33.460938 93.769531 39 94.246094 44.769531 L 94.246094 51.046875 C 92.410156 68.839844 83.550781 81.796875 67.660156 89.90625 C 62.351562 92.324219 56.816406 93.769531 51.046875 94.246094 L 44.769531 94.246094 C 26.972656 92.410156 14.019531 83.550781 5.90625 67.660156 C 3.488281 62.351562 2.046875 56.816406 1.570312 51.046875 L 1.570312 44.769531 C 3.402344 26.972656 12.265625 14.019531 28.152344 5.90625 C 33.460938 3.488281 39 2.046875 44.769531 1.570312 Z M 44.769531 1.570312 "/>
<path style=" stroke:none;fill-rule:nonzero;fill:rgb(88.235295%,84.313726%,79.607844%);fill-opacity:1;" d="M 83.539062 47.539062 C 83.335938 42.597656 82.046875 37.980469 79.660156 33.691406 C 80.136719 32.265625 80.296875 30.753906 80.125 29.261719 C 79.742188 28.316406 79.035156 27.792969 78 27.691406 C 76.402344 27.601562 74.800781 27.570312 73.203125 27.601562 C 73.53125 27.449219 73.902344 27.359375 74.308594 27.324219 C 72.214844 24.15625 69.59375 21.378906 66.554688 19.109375 C 62.667969 15.902344 58.171875 14.300781 53.078125 14.308594 C 49.046875 14.390625 45.289062 15.464844 41.816406 17.539062 C 34.457031 21.746094 28.367188 27.34375 23.539062 34.339844 C 22.039062 34.511719 20.527344 34.601562 19.015625 34.613281 C 11.167969 33.382812 8.890625 36.398438 12.183594 43.660156 C 13.515625 46.320312 14.746094 49.03125 15.875 51.785156 C 15.707031 53.996094 15.585938 56.210938 15.507812 58.429688 C 13.117188 62.285156 10.871094 66.226562 8.765625 70.246094 C 8.644531 70.492188 8.523438 70.492188 8.398438 70.246094 C 2.375 58.957031 1.050781 47.140625 4.429688 34.796875 C 9.507812 19.632812 19.632812 9.507812 34.796875 4.429688 C 51.265625 0.0976562 65.914062 3.480469 78.738281 14.585938 C 90.484375 26.0625 95.070312 39.941406 92.492188 56.214844 C 90.382812 66.746094 85.304688 75.515625 77.261719 82.523438 C 76.855469 82.878906 76.425781 83.125 75.96875 83.261719 C 74.820312 79.828125 75.03125 76.476562 76.613281 73.203125 C 78.953125 69.382812 80.8125 65.289062 82.152344 61.015625 C 83.472656 56.578125 83.933594 52.085938 83.539062 47.539062 Z M 83.539062 47.539062 "/>
<path style=" stroke:none;fill-rule:nonzero;fill:rgb(98.823529%,98.823529%,98.823529%);fill-opacity:1;" d="M 66.554688 19.109375 C 69.59375 21.378906 72.214844 24.15625 74.308594 27.324219 C 73.925781 27.351562 73.550781 27.445312 73.203125 27.601562 C 70.039062 27.816406 66.929688 28.5 63.96875 29.632812 C 61.078125 29.769531 58.1875 29.863281 55.292969 29.90625 C 54.558594 30.203125 53.820312 30.238281 53.078125 30 C 50.992188 29.914062 49.269531 29.078125 47.90625 27.507812 C 45.859375 26.257812 43.703125 26.011719 41.445312 26.769531 C 39.847656 27.863281 39.265625 29.371094 39.691406 31.292969 C 40.671875 33.035156 40.949219 34.882812 40.523438 36.832031 C 40.347656 37.128906 40.191406 37.4375 40.058594 37.753906 C 34.925781 42.453125 30.34375 47.714844 26.398438 53.445312 C 25.226562 55.484375 24.296875 57.652344 23.632812 59.90625 C 23.261719 63.113281 24.585938 65.296875 27.601562 66.464844 C 29.257812 67.121094 30.996094 67.558594 32.769531 67.753906 C 31.292969 68.878906 29.628906 69.246094 27.785156 68.863281 C 25.457031 68.457031 23.191406 67.742188 21.046875 66.738281 C 18.839844 70.722656 16.777344 74.789062 14.863281 78.921875 C 13.632812 77.535156 12.429688 76.121094 11.261719 74.679688 C 11.140625 74.449219 11.140625 74.171875 11.261719 73.941406 C 12.835938 70.242188 14.558594 66.605469 16.429688 63.046875 C 17.390625 64.75 18.777344 65.890625 20.585938 66.464844 C 19.136719 65.074219 18.242188 63.382812 17.90625 61.386719 C 17.570312 58.21875 17.882812 55.011719 18.832031 51.96875 C 22.535156 40.089844 29.210938 30.273438 38.863281 22.523438 C 43.027344 19.550781 47.640625 17.644531 52.707031 16.800781 C 57.511719 16.472656 62.128906 17.238281 66.554688 19.109375 Z M 66.554688 19.109375 "/>
<path style=" stroke:none;fill-rule:nonzero;fill:rgb(21.960784%,16.470589%,14.117648%);fill-opacity:1;" d="M 53.078125 30 C 50.488281 30.921875 47.960938 32 45.507812 33.230469 C 43.820312 34.488281 42.1875 35.8125 40.613281 37.203125 C 40.53125 37.097656 40.5 36.960938 40.523438 36.832031 C 40.949219 34.882812 40.671875 33.035156 39.691406 31.292969 C 39.265625 29.371094 39.847656 27.863281 41.445312 26.769531 C 43.703125 26.011719 45.859375 26.257812 47.90625 27.507812 C 49.269531 29.078125 50.992188 29.914062 53.078125 30 Z M 53.078125 30 "/>
<path style=" stroke:none;fill-rule:nonzero;fill:rgb(21.568628%,16.078432%,13.725491%);fill-opacity:1;" d="M 73.203125 27.601562 C 74.800781 27.570312 76.398438 27.601562 78 27.691406 C 79.039062 27.792969 79.742188 28.316406 80.125 29.261719 C 80.296875 30.753906 80.136719 32.265625 79.660156 33.691406 C 78.53125 36.847656 76.804688 39.648438 74.492188 42.09375 C 72.875 43.1875 71.152344 43.371094 69.324219 42.648438 C 65.273438 41.441406 62.042969 39.132812 59.632812 35.722656 C 58.863281 33.785156 59.386719 32.277344 61.203125 31.203125 C 62.125 30.675781 63.046875 30.15625 63.96875 29.632812 C 66.929688 28.5 70.039062 27.816406 73.203125 27.601562 Z M 73.203125 27.601562 "/>
<path style=" stroke:none;fill-rule:nonzero;fill:rgb(53.333336%,45.09804%,38.82353%);fill-opacity:1;" d="M 63.96875 29.632812 C 63.046875 30.15625 62.125 30.675781 61.203125 31.203125 C 59.386719 32.277344 58.863281 33.785156 59.632812 35.722656 C 62.042969 39.132812 65.273438 41.441406 69.324219 42.648438 C 71.152344 43.371094 72.875 43.1875 74.492188 42.09375 C 76.804688 39.648438 78.53125 36.851562 79.660156 33.691406 C 82.046875 37.980469 83.335938 42.597656 83.539062 47.535156 C 82.644531 50.429688 81.4375 53.214844 79.941406 55.847656 C 79.238281 56.855469 78.46875 57.8125 77.632812 58.707031 C 76.742188 59.316406 75.882812 59.964844 75.046875 60.648438 L 74.863281 60.371094 C 75.699219 57.273438 75.917969 54.042969 75.507812 50.863281 C 75.347656 50.011719 75.035156 49.199219 74.585938 48.460938 C 74.296875 52.566406 73.234375 56.574219 71.445312 60.277344 C 69.066406 64.742188 65.410156 66.308594 60.460938 64.984375 C 53.066406 62.875 46.578125 59.210938 40.984375 54 C 41.339844 56.21875 41.960938 58.390625 42.832031 60.460938 C 43.972656 63.902344 44.277344 67.410156 43.753906 70.984375 C 43.582031 71.746094 43.335938 72.488281 43.015625 73.203125 C 40.519531 77.265625 38.359375 81.527344 36.554688 85.941406 C 35.949219 87.566406 35.457031 89.230469 35.078125 90.921875 C 34.984375 91.109375 34.816406 91.242188 34.613281 91.292969 C 26.921875 88.878906 20.335938 84.757812 14.863281 78.921875 C 16.773438 74.789062 18.839844 70.722656 21.046875 66.738281 C 23.191406 67.742188 25.457031 68.453125 27.785156 68.863281 C 29.628906 69.246094 31.292969 68.878906 32.769531 67.753906 C 30.996094 67.554688 29.257812 67.121094 27.601562 66.460938 C 24.585938 65.292969 23.261719 63.109375 23.632812 59.90625 C 24.296875 57.652344 25.226562 55.484375 26.398438 53.445312 C 30.34375 47.714844 34.925781 42.453125 40.058594 37.753906 C 40.191406 37.433594 40.347656 37.128906 40.523438 36.832031 C 40.5 36.960938 40.53125 37.097656 40.613281 37.203125 C 42.1875 35.8125 43.820312 34.488281 45.507812 33.230469 C 47.960938 32 50.488281 30.921875 53.078125 30 C 53.820312 30.238281 54.554688 30.203125 55.292969 29.90625 C 58.191406 29.863281 61.082031 29.769531 63.96875 29.632812 Z M 63.96875 29.632812 "/>
<path style=" stroke:none;fill-rule:nonzero;fill:rgb(98.431373%,98.431373%,98.431373%);fill-opacity:1;" d="M 76.523438 62.308594 C 75.5 66.628906 74.046875 70.832031 72.183594 74.863281 C 71.792969 75.589844 71.210938 76.085938 70.429688 76.339844 L 70.246094 76.058594 C 71.042969 73.84375 71.417969 71.496094 71.351562 69.136719 C 70.6875 71.90625 69.664062 74.574219 68.308594 77.078125 C 66.890625 77.660156 65.445312 77.75 63.96875 77.351562 C 63.511719 76.777344 63.167969 76.121094 62.953125 75.417969 C 62.476562 73.105469 62.199219 70.757812 62.125 68.398438 C 67.976562 68.796875 72.777344 66.765625 76.523438 62.308594 Z M 76.523438 62.308594 "/>
</g>
</svg>
