<?xml version="1.0" encoding="UTF-8"?>
<svg xmlns="http://www.w3.org/2000/svg" xmlns:xlink="http://www.w3.org/1999/xlink" width="96px" height="96px" viewBox="0 0 96 96" version="1.1">
<g id="surface1">
<path style=" stroke:none;fill-rule:evenodd;fill:rgb(10.196079%,73.725492%,99.607843%);fill-opacity:1;" d="M 48 48 C 48 41.371094 53.371094 36 60 36 C 66.628906 36 72 41.371094 72 48 C 72 54.628906 66.628906 60 60 60 C 53.371094 60 48 54.628906 48 48 Z M 48 48 "/>
<path style=" stroke:none;fill-rule:evenodd;fill:rgb(3.921569%,81.176472%,51.372552%);fill-opacity:1;" d="M 24 72 C 24 65.371094 29.371094 60 36 60 L 48 60 L 48 72 C 48 78.628906 42.628906 84 36 84 C 29.371094 84 24 78.628906 24 72 Z M 24 72 "/>
<path style=" stroke:none;fill-rule:evenodd;fill:rgb(100%,44.705883%,38.431373%);fill-opacity:1;" d="M 48 12 L 48 36 L 60 36 C 66.628906 36 72 30.628906 72 24 C 72 17.371094 66.628906 12 60 12 Z M 48 12 "/>
<path style=" stroke:none;fill-rule:evenodd;fill:rgb(94.901961%,30.588236%,11.764706%);fill-opacity:1;" d="M 24 24 C 24 30.628906 29.371094 36 36 36 L 48 36 L 48 12 L 36 12 C 29.371094 12 24 17.371094 24 24 Z M 24 24 "/>
<path style=" stroke:none;fill-rule:evenodd;fill:rgb(63.529414%,34.901962%,100%);fill-opacity:1;" d="M 24 48 C 24 54.628906 29.371094 60 36 60 L 48 60 L 48 36 L 36 36 C 29.371094 36 24 41.371094 24 48 Z M 24 48 "/>
</g>
</svg>
