<?xml version="1.0" encoding="UTF-8"?>
<svg xmlns="http://www.w3.org/2000/svg" xmlns:xlink="http://www.w3.org/1999/xlink" width="96px" height="96px" viewBox="0 0 96 96" version="1.1">
<g id="surface1">
<rect x="0" y="0" width="96" height="96" style="fill:rgb(13.333334%,13.333334%,13.333334%);fill-opacity:1;stroke:none;"/>
<path style=" stroke:none;fill-rule:nonzero;fill:rgb(0%,84.705883%,100%);fill-opacity:1;" d="M 55.953125 47.941406 C 55.953125 43.507812 52.359375 39.914062 47.925781 39.914062 C 43.492188 39.914062 39.898438 43.507812 39.898438 47.941406 C 39.898438 52.375 43.492188 55.96875 47.925781 55.96875 C 52.359375 55.96875 55.953125 52.375 55.953125 47.941406 Z M 55.953125 47.941406 "/>
<path style="fill:none;stroke-width:144.745605;stroke-linecap:butt;stroke-linejoin:miter;stroke:rgb(0%,84.705883%,100%);stroke-opacity:1;stroke-miterlimit:10;" d="M 1806.502466 1191.917635 C 2212.740978 1191.917635 2590.120212 1250.225156 2874.590239 1348.140564 C 3217.367787 1466.080777 3428.217207 1644.978853 3428.217207 1806.944189 C 3428.217207 1975.829863 3204.852284 2165.918271 2836.749246 2287.833997 C 2558.46335 2380.006998 2192.127208 2428.154875 1806.502466 2428.154875 C 1411.159804 2428.154875 1036.872635 2382.951822 755.347432 2286.803309 C 399.170934 2165.034824 184.640483 1972.590556 184.640483 1806.944189 C 184.640483 1646.304024 386.066465 1468.731119 723.985054 1350.938147 C 1009.633011 1251.550327 1396.288441 1191.917635 1806.502466 1191.917635 Z M 1806.502466 1191.917635 " transform="matrix(0.0265296,0,0,0.0265296,0,0)"/>
<path style="fill:none;stroke-width:144.745605;stroke-linecap:butt;stroke-linejoin:miter;stroke:rgb(0%,84.705883%,100%);stroke-opacity:1;stroke-miterlimit:10;" d="M 1270.986167 1501.271427 C 1473.884561 1149.364924 1713.004294 851.643187 1940.050248 654.045477 C 2213.477184 416.103673 2473.799652 322.899984 2614.12053 403.735411 C 2760.331056 488.104627 2813.337893 776.550167 2735.152808 1156.432502 C 2675.96184 1443.700112 2534.757515 1785.005248 2342.018764 2119.095565 C 2144.568295 2461.578631 1918.258548 2763.27588 1694.451901 2959.106696 C 1411.159804 3206.76642 1137.143903 3296.436319 993.730959 3213.686757 C 854.44077 3133.440295 801.286692 2870.467485 867.986962 2518.708222 C 924.380347 2221.280968 1066.026396 1856.564479 1270.986167 1501.271427 Z M 1270.986167 1501.271427 " transform="matrix(0.0265296,0,0,0.0265296,0,0)"/>
<path style="fill:none;stroke-width:144.745605;stroke-linecap:butt;stroke-linejoin:miter;stroke:rgb(0%,84.705883%,100%);stroke-opacity:1;stroke-miterlimit:10;" d="M 1271.427891 2119.831771 C 1067.940532 1768.21975 929.386549 1412.337733 871.667992 1117.119098 C 802.022898 761.237081 851.201463 489.135316 991.3751 408.152648 C 1137.438385 323.488949 1413.957387 421.551598 1703.875339 679.076483 C 1923.264749 873.729369 2148.249326 1166.592146 2341.4298 1500.38798 C 2539.616475 1842.576563 2688.035619 2189.182383 2745.754176 2480.86723 C 2818.933059 2850.148197 2759.742091 3132.262365 2616.329148 3215.159169 C 2477.333441 3295.552872 2222.900622 3210.44745 1951.535062 2976.922883 C 1722.280491 2779.619655 1476.976627 2474.83034 1271.427891 2119.831771 Z M 1271.427891 2119.831771 " transform="matrix(0.0265296,0,0,0.0265296,0,0)"/>
</g>
</svg>
