<?xml version="1.0" encoding="UTF-8"?>
<svg xmlns="http://www.w3.org/2000/svg" xmlns:xlink="http://www.w3.org/1999/xlink" width="96px" height="96px" viewBox="0 0 96 96" version="1.1">
<g id="surface1">
<rect x="0" y="0" width="96" height="96" style="fill:rgb(100%,100%,100%);fill-opacity:1;stroke:none;"/>
<path style=" stroke:none;fill-rule:evenodd;fill:rgb(19.215687%,45.490196%,72.549021%);fill-opacity:1;" d="M 40.027344 50.664062 C 40.027344 50.664062 37.734375 52 41.660156 52.449219 C 46.421875 52.992188 48.851562 52.914062 54.09375 51.921875 C 54.09375 51.921875 55.472656 52.789062 57.398438 53.535156 C 45.644531 58.570312 30.796875 53.242188 40.027344 50.664062 Z M 38.589844 44.09375 C 38.589844 44.09375 36.019531 45.996094 39.949219 46.402344 C 45.03125 46.925781 49.042969 46.96875 55.992188 45.632812 C 55.992188 45.632812 56.949219 46.609375 58.460938 47.140625 C 44.25 51.296875 28.425781 47.464844 38.589844 44.09375 Z M 38.589844 44.09375 "/>
<path style=" stroke:none;fill-rule:evenodd;fill:rgb(79.215688%,19.215687%,19.607843%);fill-opacity:1;" d="M 50.699219 32.941406 C 53.597656 36.277344 49.9375 39.277344 49.9375 39.277344 C 49.9375 39.277344 57.292969 35.480469 53.914062 30.726562 C 50.761719 26.292969 48.34375 24.09375 61.4375 16.5 C 61.4375 16.5 40.882812 21.628906 50.699219 32.941406 Z M 50.699219 32.941406 "/>
<path style=" stroke:none;fill-rule:evenodd;fill:rgb(19.215687%,45.490196%,72.549021%);fill-opacity:1;" d="M 66.246094 55.527344 C 66.246094 55.527344 67.941406 56.925781 64.375 58.007812 C 57.589844 60.0625 36.140625 60.683594 30.179688 58.089844 C 28.039062 57.15625 32.054688 55.867188 33.320312 55.59375 C 34.636719 55.308594 35.386719 55.359375 35.386719 55.359375 C 33.007812 53.683594 19.992188 58.652344 28.777344 60.082031 C 52.742188 63.964844 72.457031 58.332031 66.246094 55.527344 Z M 41.132812 37.28125 C 41.132812 37.28125 30.21875 39.875 37.269531 40.816406 C 40.246094 41.214844 46.175781 41.121094 51.703125 40.660156 C 56.21875 40.28125 60.75 39.46875 60.75 39.46875 C 60.75 39.46875 59.160156 40.152344 58.007812 40.9375 C 46.925781 43.851562 25.519531 42.496094 31.683594 39.515625 C 36.894531 36.996094 41.132812 37.28125 41.132812 37.28125 Z M 60.707031 48.222656 C 71.96875 42.371094 66.761719 36.746094 63.125 37.503906 C 62.238281 37.6875 61.839844 37.847656 61.839844 37.847656 C 61.839844 37.847656 62.171875 37.332031 62.800781 37.105469 C 69.992188 34.578125 75.523438 44.5625 60.480469 48.519531 C 60.480469 48.519531 60.65625 48.363281 60.707031 48.222656 Z M 60.707031 48.222656 "/>
<path style=" stroke:none;fill-rule:evenodd;fill:rgb(79.215688%,19.215687%,19.607843%);fill-opacity:1;" d="M 53.914062 4.234375 C 53.914062 4.234375 60.152344 10.476562 48 20.070312 C 38.25 27.769531 45.777344 32.15625 47.996094 37.171875 C 42.304688 32.039062 38.132812 27.519531 40.929688 23.3125 C 45.042969 17.140625 56.433594 14.148438 53.914062 4.234375 Z M 53.914062 4.234375 "/>
<path style=" stroke:none;fill-rule:evenodd;fill:rgb(19.215687%,45.490196%,72.549021%);fill-opacity:1;" d="M 42.238281 64.085938 C 53.050781 64.777344 69.652344 63.699219 70.046875 58.585938 C 70.046875 58.585938 69.292969 60.523438 61.113281 62.0625 C 51.882812 63.800781 40.5 63.597656 33.75 62.484375 C 33.75 62.484375 35.132812 63.628906 42.238281 64.085938 Z M 42.238281 64.085938 "/>
<path style=" stroke:none;fill-rule:evenodd;fill:rgb(79.215688%,19.215687%,19.607843%);fill-opacity:1;" d="M 69.546875 73.257812 L 69.21875 73.257812 L 69.21875 73.074219 L 70.105469 73.074219 L 70.105469 73.257812 L 69.777344 73.257812 L 69.777344 74.179688 L 69.546875 74.179688 Z M 71.320312 73.304688 L 71.316406 73.304688 L 70.988281 74.179688 L 70.839844 74.179688 L 70.511719 73.304688 L 70.507812 73.304688 L 70.507812 74.179688 L 70.292969 74.179688 L 70.292969 73.074219 L 70.613281 73.074219 L 70.914062 73.855469 L 71.214844 73.074219 L 71.53125 73.074219 L 71.53125 74.179688 L 71.320312 74.179688 Z M 40.46875 83.632812 C 39.449219 84.515625 38.371094 85.011719 37.402344 85.011719 C 36.023438 85.011719 35.277344 84.183594 35.277344 82.859375 C 35.277344 81.421875 36.078125 80.375 39.28125 80.375 L 40.46875 80.375 Z M 43.28125 86.804688 L 43.28125 76.976562 C 43.28125 74.464844 41.851562 72.808594 38.398438 72.808594 C 36.382812 72.808594 34.617188 73.308594 33.179688 73.941406 L 33.59375 75.679688 C 34.726562 75.265625 36.1875 74.882812 37.621094 74.882812 C 39.613281 74.882812 40.46875 75.679688 40.46875 77.339844 L 40.46875 78.582031 L 39.472656 78.582031 C 34.640625 78.582031 32.460938 80.457031 32.460938 83.273438 C 32.460938 85.703125 33.898438 87.082031 36.601562 87.082031 C 38.339844 87.082031 39.640625 86.367188 40.851562 85.316406 L 41.074219 86.804688 Z M 52.671875 86.804688 L 49.164062 86.804688 L 44.941406 73.058594 L 48.003906 73.058594 L 50.628906 81.507812 L 51.210938 84.042969 C 52.535156 80.375 53.472656 76.648438 53.941406 73.058594 L 56.921875 73.058594 C 56.125 77.585938 54.6875 82.554688 52.671875 86.804688 Z M 66.140625 83.632812 C 65.117188 84.515625 64.039062 85.011719 63.074219 85.011719 C 61.695312 85.011719 60.949219 84.183594 60.949219 82.859375 C 60.949219 81.421875 61.75 80.375 64.953125 80.375 L 66.140625 80.375 Z M 68.953125 86.804688 L 68.953125 76.976562 C 68.953125 74.464844 67.515625 72.808594 64.066406 72.808594 C 62.050781 72.808594 60.285156 73.308594 58.851562 73.941406 L 59.261719 75.679688 C 60.394531 75.265625 61.859375 74.882812 63.296875 74.882812 C 65.28125 74.882812 66.136719 75.679688 66.136719 77.339844 L 66.136719 78.582031 L 65.144531 78.582031 C 60.3125 78.582031 58.132812 80.457031 58.132812 83.273438 C 58.132812 85.703125 59.566406 87.082031 62.273438 87.082031 C 64.011719 87.082031 65.308594 86.367188 66.523438 85.316406 L 66.746094 86.804688 Z M 29.375 89.140625 C 28.574219 90.3125 27.277344 91.242188 25.859375 91.765625 L 24.46875 90.128906 C 25.550781 89.574219 26.476562 88.679688 26.90625 87.847656 C 27.277344 87.105469 27.433594 86.148438 27.433594 83.867188 L 27.433594 68.171875 L 30.421875 68.171875 L 30.421875 83.648438 C 30.421875 86.703125 30.179688 87.9375 29.375 89.140625 Z M 29.375 89.140625 "/>
</g>
</svg>
