<svg width="277" height="57" viewBox="0 0 277 57" fill="none" xmlns="http://www.w3.org/2000/svg">
<path d="M243.098 43.2996C238.898 43.2996 235.498 41.8996 233.098 38.9996C230.598 36.0996 229.398 32.2996 229.398 27.4996C229.398 22.5996 230.598 18.7996 233.098 15.8996C235.598 12.9996 238.898 11.5996 243.098 11.5996C245.098 11.5996 246.998 12.0996 248.798 12.9996C250.598 13.8996 251.998 15.1996 253.098 16.6996H253.398V12.5996C253.398 12.2996 253.698 11.9996 253.998 11.9996H259.498C259.898 11.9996 260.098 12.1996 260.098 12.5996V42.2996C260.098 42.6996 259.798 42.9996 259.398 42.9996H254.398C253.998 42.9996 253.698 42.6996 253.698 42.2996V38.5996V38.3996H253.498C252.398 39.8996 250.998 41.1996 249.198 42.0996C247.198 42.7996 245.198 43.2996 243.098 43.2996ZM236.198 27.4996C236.198 30.6996 236.998 33.1996 238.598 35.0996C240.198 36.8996 242.298 37.8996 244.998 37.8996C247.698 37.8996 249.798 36.9996 251.298 35.0996C252.798 33.2996 253.598 30.6996 253.598 27.4996C253.598 24.1996 252.798 21.6996 251.298 19.7996C249.798 17.8996 247.698 16.9996 244.998 16.9996C242.298 16.9996 240.098 17.8996 238.598 19.7996C236.998 21.6996 236.198 24.1996 236.198 27.4996Z" fill="#8878FC"/>
<path d="M72.1016 43.3C67.5016 43.3 63.7016 41.8 60.9016 38.9C58.0016 36 56.6016 32.2 56.6016 27.4C56.6016 22.7 58.0016 18.8 60.9016 15.9C63.8016 12.9 67.5016 11.5 72.1016 11.5C76.8016 11.5 80.5016 13 83.4016 15.9C86.3016 18.9 87.7016 22.7 87.7016 27.4C87.7016 32.1 86.3016 35.9 83.4016 38.9C80.5016 41.8 76.7016 43.3 72.1016 43.3ZM63.4016 27.5C63.4016 30.7 64.2016 33.3 65.7016 35.1C67.2016 36.9 69.4016 37.9 72.1016 37.9C74.8016 37.9 77.0016 37 78.5016 35.1C80.1016 33.3 80.9016 30.7 80.9016 27.5C80.9016 24.2 80.1016 21.7 78.6016 19.8C77.0016 17.9 74.9016 17 72.2016 17C69.5016 17 67.4016 17.9 65.8016 19.8C64.2016 21.7 63.4016 24.2 63.4016 27.5Z" fill="#8878FC"/>
<path d="M139.301 6.79922V0.799217C139.301 0.399217 139.501 0.199219 139.801 0.199219H145.801C146.001 0.199219 146.101 0.299216 146.201 0.399216C146.301 0.499216 146.401 0.599217 146.401 0.799217V6.79922C146.401 7.19922 146.201 7.29922 145.801 7.29922H139.801C139.501 7.29922 139.301 7.19922 139.301 6.79922ZM140.001 42.8992C139.601 42.8992 139.401 42.6992 139.401 42.2992V12.4992C139.401 12.0992 139.601 11.8992 140.001 11.8992H145.501C145.901 11.8992 146.101 12.0992 146.101 12.4992V42.3992C146.101 42.7992 145.901 42.9992 145.501 42.9992H140.001V42.8992Z" fill="#8878FC"/>
<path d="M193.699 6.79922V0.799217C193.699 0.399217 193.899 0.199219 194.199 0.199219H200.199C200.399 0.199219 200.499 0.299216 200.599 0.399216C200.699 0.499216 200.799 0.599217 200.799 0.799217V6.79922C200.799 7.19922 200.599 7.29922 200.199 7.29922H194.199C193.799 7.29922 193.699 7.19922 193.699 6.79922ZM194.399 42.8992C193.999 42.8992 193.799 42.6992 193.799 42.2992V12.4992C193.799 12.0992 193.999 11.8992 194.399 11.8992H199.899C200.199 11.8992 200.499 12.1992 200.499 12.4992V42.3992C200.499 42.6992 200.199 42.9992 199.899 42.9992H194.399V42.8992Z" fill="#8878FC"/>
<path d="M216.602 17.2008H224.502C224.702 17.2008 224.902 17.0008 224.902 16.8008V12.2008C224.902 12.0008 224.702 11.8008 224.502 11.8008H216.602V17.2008Z" fill="#8878FC"/>
<path d="M216.802 42.4004V3.90039C216.802 3.60039 216.602 3.40039 216.302 3.40039H210.602C210.302 3.40039 210.102 3.60039 210.102 3.90039V42.4004C210.102 42.7004 210.302 42.9004 210.602 42.9004H216.302C216.602 42.9004 216.802 42.7004 216.802 42.4004Z" fill="#8878FC"/>
<path d="M276.302 42.4V0.5C276.302 0.2 276.102 0 275.802 0H270.102C269.802 0 269.602 0.2 269.602 0.5V42.4C269.602 42.7 269.802 42.9 270.102 42.9H275.802C276.002 42.9 276.302 42.7 276.302 42.4Z" fill="#8878FC"/>
<path d="M173.302 41.9C175.102 41 176.502 39.7 177.602 38.2H177.902V49.3C177.902 49.6 178.202 49.9 178.502 49.9H183.702C184.002 49.9 184.302 49.6 184.302 49.3V12.5C184.302 12.1 184.102 11.9 183.702 11.9H178.802C178.502 11.9 178.202 12.2 178.202 12.5V16.6H178.002C176.902 15.1 175.502 13.8 173.702 12.9C171.902 12 169.902 11.5 167.802 11.5C163.602 11.5 160.202 12.9 157.802 15.8C155.302 18.7 154.102 22.5 154.102 27.3C154.102 32.2 155.302 36 157.802 38.9C160.302 41.8 163.602 43.2 167.802 43.2C169.602 43.3 171.502 42.8 173.302 41.9ZM163.102 35C161.502 33.1 160.702 30.6 160.702 27.3C160.702 24.1 161.502 21.6 163.102 19.7C164.702 17.9 166.802 16.9 169.502 16.9C172.202 16.9 174.302 17.8 175.802 19.7C177.302 21.5 178.102 24.1 178.102 27.3C178.102 30.6 177.302 33.1 175.802 35C174.302 36.9 172.202 37.8 169.502 37.8C166.802 37.8 164.602 36.9 163.102 35Z" fill="#8878FC"/>
<path d="M160.099 56.3992H176.599C176.799 56.3992 176.999 56.1992 176.999 55.9992V51.0992C176.999 50.8992 176.799 50.6992 176.599 50.6992H160.099C159.899 50.6992 159.699 50.8992 159.699 51.0992V55.9992C159.699 56.2992 159.899 56.3992 160.099 56.3992Z" fill="#8878FC"/>
<path d="M35.3984 19.0004V42.4004C35.3984 42.7004 35.6984 43.0004 35.9984 43.0004H41.5984C41.8984 43.0004 42.1984 42.7004 42.1984 42.4004V19.0004C42.1984 18.7004 41.8984 18.4004 41.5984 18.4004H35.9984C35.5984 18.4004 35.3984 18.7004 35.3984 19.0004Z" fill="#8878FC"/>
<path d="M52.8984 11.9004H43.4984C43.1984 11.9004 42.8984 12.2004 42.8984 12.5004V17.0004C42.8984 17.3004 43.1984 17.6004 43.4984 17.6004H52.8984C53.1984 17.6004 53.4984 17.3004 53.4984 17.0004V12.5004C53.4984 12.1004 53.1984 11.9004 52.8984 11.9004Z" fill="#8878FC"/>
<path d="M26.2 3.90078C23.5 1.50078 19.7 0.300781 14.7 0.300781H8.3C8 0.300781 7.7 0.60078 7.7 0.90078V5.70078C7.7 6.00078 8 6.30078 8.3 6.30078H14.7C17.6 6.30078 19.7 6.90078 21.1 8.20078C22.5 9.50078 23.2 11.5008 23.2 14.1008C23.2 16.7008 22.5 18.7008 21.1 20.0008C19.7 21.3008 17.6 21.9008 14.7 21.9008H7V7.60078C7 7.30078 6.7 7.00078 6.4 7.00078H0.599998C0.299998 7.00078 0 7.30078 0 7.60078V42.3008C0 42.7008 0.199998 42.9008 0.599998 42.9008H6.4C6.8 42.9008 7 42.7008 7 42.3008V27.9008H14.7C19.7 27.9008 23.5 26.7008 26.2 24.3008C28.9 21.9008 30.2 18.5008 30.2 14.1008C30.2 9.70078 28.9 6.30078 26.2 3.90078Z" fill="#8878FC"/>
<path d="M95.3984 7.6V35.6C95.3984 35.9 95.6984 36.2 95.9984 36.2H101.798C102.098 36.2 102.398 35.9 102.398 35.6V7.6C102.398 7.3 102.098 7 101.798 7H95.9984C95.5984 7 95.3984 7.3 95.3984 7.6Z" fill="#8878FC"/>
<path d="M126.299 6.00078C122.699 2.20078 117.699 0.300781 111.299 0.300781H103.799C103.499 0.300781 103.199 0.60078 103.199 0.90078V5.70078C103.199 6.00078 103.499 6.30078 103.799 6.30078H110.899C115.199 6.30078 118.599 7.70078 120.999 10.4008C123.399 13.1008 124.599 16.9008 124.599 21.9008C124.599 26.8008 123.399 30.6008 121.099 33.2008C118.699 35.8008 115.399 37.1008 110.999 37.1008H103.899C103.599 37.1008 103.299 37.4008 103.299 37.7008V42.5008C103.299 42.8008 103.599 43.1008 103.899 43.1008H111.399C117.799 43.1008 122.799 41.3008 126.399 37.6008C129.999 33.9008 131.799 28.7008 131.799 22.0008C131.699 15.0008 129.899 9.80078 126.299 6.00078Z" fill="#8878FC"/>
</svg>
